<svg width="24" height="32" viewBox="0 0 24 32" fill="none" xmlns="http://www.w3.org/2000/svg">
<path d="M12 24C18.6274 24 24 18.6274 24 12C24 5.37258 18.6274 0 12 0C5.37258 0 0 5.37258 0 12C0 18.6274 5.37258 24 12 24Z" fill="#FBBC04"/>
<path d="M12 24C18.6274 24 24 18.6274 24 12C24 5.37258 18.6274 0 12 0C5.37258 0 0 5.37258 0 12C0 18.6274 5.37258 24 12 24Z" fill="url(#paint0_linear_247_85)"/>
<path d="M15 27C19.9706 27 24 22.9706 24 18C24 13.0294 19.9706 9 15 9C10.0294 9 6 13.0294 6 18C6 22.9706 10.0294 27 15 27Z" fill="#9A9A9A" fill-opacity="0.9"/>
<path fill-rule="evenodd" clip-rule="evenodd" d="M6 17.4072C6.12335 15.5384 6.82663 13.7547 8.01184 12.3045C9.19704 10.8544 10.8051 9.81012 12.612 9.31725C14.4188 8.82437 16.3344 8.90745 18.0918 9.5549C19.8492 10.2024 21.3608 11.3819 22.416 12.9292C21.3686 14.7736 19.8509 16.3072 18.0176 17.3739C16.1843 18.4406 14.101 19.0021 11.98 19.0012C9.802 19.0012 7.76 18.4212 6 17.4072Z" fill="url(#paint1_linear_247_85)"/>
<path fill-rule="evenodd" clip-rule="evenodd" d="M15 27.5C15 25.5109 14.2098 23.6032 12.8033 22.1967C11.3968 20.7902 9.48912 20 7.5 20C5.51088 20 3.60322 20.7902 2.1967 22.1967C0.790176 23.6032 0 25.5109 0 27.5C0.011 27.483 15.004 27.488 15 27.5Z" fill="#BBBDBE" fill-opacity="0.95"/>
<path d="M10 28L9 30" stroke="#9A9A9A"/>
<path d="M13 28L12 30" stroke="#9A9A9A"/>
<path d="M6 29L5 31" stroke="#9A9A9A"/>
<path d="M17 27L16 29" stroke="#9A9A9A"/>
<defs>
<linearGradient id="paint0_linear_247_85" x1="0" y1="0" x2="16.2862" y2="18.2474" gradientUnits="userSpaceOnUse">
<stop stop-color="#FCD35C"/>
<stop offset="1" stop-color="#FBBC04"/>
</linearGradient>
<linearGradient id="paint1_linear_247_85" x1="11.98" y1="9.00122" x2="15.48" y2="19.5012" gradientUnits="userSpaceOnUse">
<stop stop-color="#FCBF0F"/>
<stop offset="1" stop-color="#9A9A9A" stop-opacity="0"/>
</linearGradient>
</defs>
</svg>
