<svg width="24" height="29" viewBox="0 0 24 29" fill="none" xmlns="http://www.w3.org/2000/svg">
<path d="M10.3448 21.0526C16.0581 21.0526 20.6897 16.3398 20.6897 10.5263C20.6897 4.71279 16.0581 0 10.3448 0C4.63154 0 0 4.71279 0 10.5263C0 16.3398 4.63154 21.0526 10.3448 21.0526Z" fill="url(#paint0_linear_247_89)"/>
<path d="M16.5518 23.579C20.6654 23.579 24.0001 20.1858 24.0001 16.0001C24.0001 11.8144 20.6654 8.42114 16.5518 8.42114C12.4382 8.42114 9.10352 11.8144 9.10352 16.0001C9.10352 20.1858 12.4382 23.579 16.5518 23.579Z" fill="#9A9A9A" fill-opacity="0.9"/>
<path fill-rule="evenodd" clip-rule="evenodd" d="M16.5517 24.0001C16.5517 22.3251 15.8978 20.7186 14.7338 19.5342C13.5698 18.3497 11.991 17.6843 10.3448 17.6843C8.69866 17.6843 7.11992 18.3497 5.9559 19.5342C4.79188 20.7186 4.13794 22.3251 4.13794 24.0001C4.14704 23.9858 16.555 23.99 16.5517 24.0001Z" fill="#BBBDBE" fill-opacity="0.95"/>
<path d="M13 25L12 27" stroke="#9A9A9A"/>
<path d="M13 25L12 27" stroke="#9A9A9A"/>
<path d="M16 25L15 27" stroke="#9A9A9A"/>
<path d="M9 26L8 28" stroke="#9A9A9A"/>
<defs>
<linearGradient id="paint0_linear_247_89" x1="0.701172" y1="0.713474" x2="21.0373" y2="20.6989" gradientUnits="userSpaceOnUse">
<stop stop-color="#DBDBDB"/>
<stop offset="1" stop-color="#BFBFBF"/>
</linearGradient>
</defs>
</svg>
